<svg width="50" height="45" viewBox="0 0 50 45" fill="none" xmlns="http://www.w3.org/2000/svg">
<path d="M1.71875 10.8859H36.5521C40.4024 10.8859 42.3276 10.8859 43.7983 11.6352C45.0919 12.2944 46.1436 13.3461 46.8028 14.6397C47.5521 16.1104 47.5521 18.0355 47.5521 21.8859V31.9692C47.5521 35.8196 47.5521 37.7448 46.8028 39.2154C46.1436 40.509 45.0919 41.5608 43.7983 42.2199C42.3276 42.9692 40.4024 42.9692 36.5521 42.9692H12.7188C8.86839 42.9692 6.94321 42.9692 5.47257 42.2199C4.17895 41.5608 3.12721 40.509 2.46808 39.2154C1.71875 37.7448 1.71875 35.8196 1.71875 31.9692V10.8859Z" fill="#2563EB"/>
<path d="M26.9271 10.8859L24.3706 5.773C23.6349 4.3015 23.267 3.5657 22.7181 3.02816C22.2328 2.55279 21.6478 2.19126 21.0056 1.96974C20.2793 1.71924 19.4567 1.71924 17.8115 1.71924H9.05208C6.48518 1.71924 5.20172 1.71924 4.22129 2.21879C3.35888 2.65821 2.65772 3.35937 2.2183 4.22178C1.71875 5.20221 1.71875 6.48566 1.71875 9.05257V10.8859M1.71875 10.8859H36.5521C40.4024 10.8859 42.3276 10.8859 43.7983 11.6352C45.0919 12.2944 46.1436 13.3461 46.8028 14.6397C47.5521 16.1104 47.5521 18.0355 47.5521 21.8859V31.9692C47.5521 35.8196 47.5521 37.7448 46.8028 39.2154C46.1436 40.509 45.0919 41.5608 43.7983 42.2199C42.3276 42.9692 40.4024 42.9692 36.5521 42.9692H12.7188C8.86839 42.9692 6.94321 42.9692 5.47257 42.2199C4.17895 41.5608 3.12721 40.509 2.46808 39.2154C1.71875 37.7448 1.71875 35.8196 1.71875 31.9692V10.8859Z" stroke="#1E3A8A" stroke-width="3.4375" stroke-linecap="round" stroke-linejoin="round"/>
</svg>
