<svg width="22" height="22" viewBox="0 0 22 22" fill="none" xmlns="http://www.w3.org/2000/svg">
<path d="M1 4.2C1 3.07989 1 2.51984 1.21799 2.09202C1.40973 1.71569 1.71569 1.40973 2.09202 1.21799C2.51984 1 3.0799 1 4.2 1H11.8C12.9201 1 13.4802 1 13.908 1.21799C14.2843 1.40973 14.5903 1.71569 14.782 2.09202C15 2.51984 15 3.0799 15 4.2V11.8C15 12.9201 15 13.4802 14.782 13.908C14.5903 14.2843 14.2843 14.5903 13.908 14.782C13.4802 15 12.9201 15 11.8 15H4.2C3.07989 15 2.51984 15 2.09202 14.782C1.71569 14.5903 1.40973 14.2843 1.21799 13.908C1 13.4802 1 12.9201 1 11.8V4.2Z" stroke="black" stroke-width="1.5" stroke-linecap="round" stroke-linejoin="round"/>
<path d="M7 10.2C7 9.07989 7 8.51984 7.21799 8.09202C7.40973 7.71569 7.71569 7.40973 8.09202 7.21799C8.51984 7 9.07989 7 10.2 7H17.8C18.9201 7 19.4802 7 19.908 7.21799C20.2843 7.40973 20.5903 7.71569 20.782 8.09202C21 8.51984 21 9.07989 21 10.2V17.8C21 18.9201 21 19.4802 20.782 19.908C20.5903 20.2843 20.2843 20.5903 19.908 20.782C19.4802 21 18.9201 21 17.8 21H10.2C9.07989 21 8.51984 21 8.09202 20.782C7.71569 20.5903 7.40973 20.2843 7.21799 19.908C7 19.4802 7 18.9201 7 17.8V10.2Z" stroke="black" stroke-width="1.5" stroke-linecap="round" stroke-linejoin="round"/>
</svg>
