<svg width="25" height="24" viewBox="0 0 25 24" fill="none" xmlns="http://www.w3.org/2000/svg">
<path d="M17.8695 4.26805C17.8695 4.33836 17.8672 4.40868 17.8625 4.47899C17.8602 4.51414 17.8578 4.54696 17.8531 4.58211C17.8484 4.62899 17.818 4.73211 17.8578 4.56102C17.8274 4.68993 17.8109 4.81883 17.7758 4.94539C17.7594 5.00633 17.7383 5.06727 17.7172 5.12821C17.7055 5.15633 17.6914 5.1868 17.6844 5.21727C17.7313 5.05555 17.7149 5.14696 17.6938 5.19149C17.6422 5.30164 17.5836 5.40946 17.518 5.51258C17.4852 5.5618 17.4477 5.60868 17.4149 5.66024C17.5203 5.49852 17.4289 5.63914 17.3938 5.67899C17.3094 5.77508 17.218 5.85946 17.1219 5.94149C17.0375 6.01414 17.2414 5.85477 17.15 5.92039C17.1313 5.93446 17.1102 5.94852 17.0914 5.96258C17.0492 5.99305 17.0047 6.02117 16.9578 6.04696C16.9086 6.07743 16.857 6.10321 16.8078 6.12899C16.782 6.14071 16.7563 6.15243 16.7305 6.16649C16.6391 6.20867 16.8805 6.10789 16.7375 6.1618C16.6391 6.1993 16.5359 6.22743 16.4328 6.25086C16.3742 6.26258 16.175 6.2743 16.3859 6.26258C16.3274 6.26493 16.2664 6.2743 16.2078 6.27664C16.0859 6.28133 15.9688 6.26727 15.8492 6.26258C16.0578 6.27196 15.8727 6.26492 15.8164 6.25321C15.7555 6.24149 15.6945 6.22508 15.6336 6.20633C15.5774 6.18992 15.5234 6.16883 15.4695 6.15008C15.3641 6.11258 15.6055 6.21336 15.5024 6.16414C15.4766 6.15242 15.4508 6.14071 15.425 6.12664C15.3219 6.07508 15.2234 6.01649 15.1297 5.95086C15.1063 5.93446 15.0828 5.91571 15.0594 5.8993C15.2094 6.00242 15.1227 5.94618 15.0875 5.91805C15.05 5.88758 15.0149 5.85477 14.9797 5.82196C14.9375 5.78211 14.8977 5.73992 14.8578 5.69539C14.8391 5.6743 14.818 5.65086 14.7992 5.62977C14.7008 5.51258 14.8578 5.71414 14.7992 5.63211C14.7359 5.54071 14.675 5.4493 14.6211 5.35321C14.5906 5.2993 14.5649 5.24539 14.5391 5.18914C14.518 5.14461 14.5016 5.05321 14.5484 5.21492C14.5391 5.17977 14.5227 5.14696 14.5086 5.1118C14.4664 4.99461 14.4336 4.87742 14.4078 4.75555C14.3938 4.68992 14.3867 4.6243 14.3727 4.55867C14.4078 4.71102 14.3844 4.65711 14.3797 4.61492C14.375 4.57039 14.3703 4.52352 14.368 4.47899C14.3586 4.34071 14.3586 4.20008 14.368 4.0618C14.3727 4.00555 14.3797 3.95164 14.3844 3.89539C14.368 4.08055 14.375 3.96571 14.382 3.92352C14.3891 3.88133 14.3984 3.84149 14.4078 3.7993C14.4313 3.69149 14.4664 3.58836 14.5039 3.48289C14.5414 3.37508 14.4406 3.61649 14.4899 3.51571C14.5016 3.48992 14.5133 3.46414 14.5274 3.43836C14.5555 3.37977 14.5883 3.32352 14.6234 3.26727C14.6469 3.22977 14.6797 3.15946 14.7172 3.13133C14.7195 3.13133 14.6164 3.25321 14.675 3.18524C14.6938 3.16414 14.7102 3.14305 14.7266 3.1243C14.8039 3.03758 14.8906 2.96258 14.9797 2.88524C14.8297 3.01649 14.9469 2.91336 14.9914 2.88289C15.0359 2.85242 15.0828 2.8243 15.1297 2.79852C15.1766 2.77274 15.2258 2.74696 15.275 2.72352C15.3172 2.70477 15.4109 2.67664 15.2352 2.73992C15.2609 2.73055 15.2867 2.71883 15.3125 2.70946C15.418 2.66961 15.5258 2.63914 15.6336 2.61571C15.6852 2.60399 15.7367 2.59461 15.7883 2.58524C15.8328 2.57586 15.9149 2.57586 15.732 2.59227C15.7719 2.58992 15.8094 2.58289 15.8492 2.58055C15.9688 2.57117 16.0883 2.56649 16.2078 2.57117L16.3555 2.57821C16.3859 2.58055 16.4141 2.58289 16.4445 2.58524C16.5992 2.60164 16.332 2.56414 16.4328 2.58289C16.5547 2.60399 16.6742 2.62977 16.7914 2.66492C16.8524 2.68367 16.9133 2.70711 16.9742 2.72821C17.0774 2.76571 16.8359 2.66492 16.9344 2.7118C16.9672 2.72821 17 2.74227 17.0328 2.75867C17.1383 2.81258 17.232 2.87821 17.3281 2.94383C17.1524 2.83133 17.3305 2.94852 17.3727 2.98836C17.4125 3.02586 17.45 3.06336 17.4852 3.10321C17.5039 3.12196 17.5203 3.14305 17.5391 3.16414C17.6328 3.27664 17.4758 3.07039 17.532 3.15242C17.5695 3.20633 17.6047 3.25789 17.6375 3.31414C17.6656 3.36336 17.6914 3.41258 17.7172 3.46414C17.7289 3.48992 17.7406 3.51571 17.7524 3.54149C17.6656 3.36571 17.7313 3.49227 17.7453 3.5368C17.7899 3.66102 17.8227 3.78992 17.8461 3.92117C17.8531 3.96805 17.8531 4.07352 17.8438 3.89305C17.8461 3.93758 17.8531 3.98211 17.8578 4.0243C17.8672 4.10633 17.8695 4.18602 17.8695 4.26805C17.8719 4.57508 18.1367 4.86805 18.4555 4.85399C18.7719 4.83993 19.0438 4.59617 19.0414 4.26805C19.0391 3.66102 18.8914 3.02352 18.5211 2.52899C18.1578 2.04617 17.6703 1.70633 17.0891 1.53289C16.018 1.2118 14.6633 1.43446 13.8992 2.29696C13.0274 3.27899 12.9945 4.82117 13.6133 5.94617C13.8922 6.45477 14.3352 6.90243 14.8602 7.15321C15.4484 7.43446 16.0906 7.51414 16.7305 7.38289C17.9399 7.13211 18.8258 6.03758 18.9922 4.83992C19.018 4.65008 19.0391 4.46258 19.0391 4.27039C19.0414 3.96336 18.7695 3.67039 18.4531 3.68446C18.1367 3.69617 17.8719 3.93758 17.8695 4.26805Z" fill="white"/>
<path d="M11.7992 10.5257C11.8179 10.4507 11.8461 10.4742 11.7734 10.5679C11.7851 10.5515 11.8086 10.5164 11.8156 10.4976C11.7969 10.5211 11.7781 10.5468 11.757 10.5703C11.7687 10.5562 11.7828 10.5398 11.7945 10.5257C11.8156 10.5047 11.8367 10.4836 11.8601 10.4625C11.8742 10.4484 11.9562 10.3898 11.8719 10.4484C11.7851 10.5093 11.8742 10.4484 11.8883 10.4367C11.9469 10.3945 12.0101 10.357 12.0734 10.3218C12.1648 10.2703 12.2609 10.2281 12.3547 10.1789C12.5351 10.0875 12.7133 9.98903 12.8937 9.89528C13.4984 9.57887 14.1008 9.26012 14.7054 8.94372C14.8625 8.86169 15.0172 8.77966 15.1742 8.69762C14.907 8.62731 14.6398 8.557 14.3726 8.48669C14.5789 8.75622 14.8203 8.99528 15.1273 9.14762C15.4367 9.30231 15.7742 9.39137 16.1234 9.39372C16.7539 9.39606 17.4031 9.10778 17.7922 8.60387C17.5554 8.63434 17.3187 8.66481 17.082 8.69528C17.8062 9.07966 18.5328 9.46169 19.257 9.84606C19.5359 9.99372 19.8289 10.1273 20.0984 10.289C20.1429 10.3148 20.1851 10.3453 20.2297 10.3757C20.2929 10.4179 20.1359 10.2984 20.1922 10.3476C20.2133 10.3664 20.2367 10.3851 20.2578 10.4039C20.2929 10.4343 20.3258 10.4672 20.3562 10.5C20.3726 10.5164 20.3867 10.5328 20.4031 10.5515C20.4476 10.6007 20.45 10.65 20.3984 10.5398C20.4359 10.6195 20.5039 10.6922 20.5461 10.7718C20.5601 10.7976 20.5719 10.8234 20.5859 10.8492C20.5953 10.8703 20.6328 10.9406 20.5906 10.8586C20.5484 10.7789 20.5836 10.8468 20.5929 10.8703C20.6023 10.8984 20.6117 10.9265 20.6211 10.9523L20.6984 11.1632C21.0289 12.0586 21.3594 12.9562 21.6898 13.8515C21.7437 13.9992 21.8 14.1492 21.8539 14.2968C21.8656 14.3273 21.8773 14.3554 21.8867 14.3859C21.8984 14.4211 21.9008 14.5101 21.9031 14.4164C21.9054 14.3226 21.8961 14.3976 21.9008 14.4234C21.9101 14.4937 21.9453 14.2781 21.9078 14.3859C21.9031 14.4023 21.889 14.4351 21.8867 14.4515C21.889 14.4117 21.9383 14.3297 21.8914 14.4187C21.8586 14.4797 21.9945 14.3226 21.9054 14.3929C21.9008 14.3976 21.882 14.4117 21.8797 14.4164C21.8773 14.4164 21.8773 14.4187 21.875 14.4187C21.8656 14.4257 21.8586 14.4328 21.8492 14.4398C21.8094 14.4726 21.7695 14.5054 21.7297 14.5382C21.5867 14.6554 21.4437 14.7726 21.3008 14.8898C20.607 15.4593 19.9109 16.0289 19.2172 16.5984C19.2008 16.6101 19.1867 16.6242 19.1703 16.6359C18.9312 16.8304 18.9523 17.264 19.1703 17.4656C19.4234 17.6976 19.7445 17.6742 20 17.4656C20.6328 16.9453 21.2656 16.4273 21.9008 15.907C22.1656 15.689 22.4328 15.4757 22.6929 15.2554C23.0234 14.9789 23.1594 14.4867 23.0187 14.0765C22.9906 13.9922 22.9578 13.9078 22.925 13.8258C22.5875 12.9093 22.25 11.9906 21.9101 11.0742C21.7695 10.6922 21.6523 10.2726 21.4086 9.94216C21.1601 9.60934 20.8625 9.35856 20.4898 9.17106C20.382 9.11716 20.2742 9.05622 20.1664 8.99997C19.3554 8.57106 18.5445 8.14216 17.7336 7.71325C17.7125 7.70153 17.6914 7.69216 17.6726 7.68044C17.4664 7.57028 17.1242 7.56559 16.9625 7.77184C16.8992 7.85387 16.8265 7.93122 16.7492 8.00153C16.7304 8.01794 16.707 8.03434 16.6906 8.05075C16.8054 7.93591 16.7515 8.00387 16.7094 8.032C16.6601 8.06481 16.6062 8.09762 16.5523 8.12341C16.5312 8.13512 16.5078 8.1445 16.4844 8.15622C16.4304 8.18434 16.632 8.10231 16.5148 8.14216C16.4633 8.15856 16.4117 8.17731 16.3601 8.19137C16.332 8.19841 16.3015 8.20544 16.2734 8.21012C16.2219 8.2195 16.1304 8.21247 16.3133 8.20778C16.2594 8.21012 16.2054 8.21716 16.1515 8.2195C16.0976 8.2195 16.0437 8.2195 15.9898 8.21481C15.9289 8.21012 15.875 8.17731 16.0297 8.22184C16.0062 8.21481 15.9804 8.21247 15.957 8.20778C15.9031 8.19606 15.8515 8.182 15.8 8.16559C15.7719 8.15622 15.7437 8.14684 15.7156 8.13512C15.6101 8.09762 15.8445 8.20075 15.7461 8.14684C15.6969 8.12106 15.6476 8.09762 15.6008 8.06716C15.575 8.05075 15.5492 8.03434 15.5234 8.01794C15.4437 7.96637 15.5328 8.01794 15.5562 8.04606C15.5187 7.99919 15.4601 7.96403 15.4179 7.9195C15.3734 7.87497 15.2304 7.69216 15.3828 7.89372C15.2914 7.77184 15.1906 7.65934 15.0336 7.62419C14.8765 7.58903 14.7265 7.60778 14.5812 7.68278C13.6437 8.17497 12.7109 8.67887 11.7687 9.16169C11.3211 9.39137 10.7937 9.67497 10.6695 10.2093C10.5992 10.507 10.7609 10.8586 11.0797 10.9312C11.3797 11.0039 11.7242 10.8468 11.7992 10.5257Z" fill="white"/>
<path d="M12.1157 21.4361C11.0399 21.4361 9.96643 21.4361 8.89065 21.4361C8.73831 21.4361 8.58596 21.4361 8.43362 21.4361C8.62815 21.6306 8.82503 21.8275 9.01956 22.022C9.07112 21.4197 9.12503 20.815 9.17659 20.2126C9.20237 19.9033 9.2305 19.5939 9.25628 19.2845C9.31721 18.5697 9.3805 17.8525 9.44143 17.1376C9.50003 16.465 9.55862 15.79 9.61721 15.1173C9.62425 15.0353 9.63128 14.9509 9.63831 14.8689C9.64065 14.8478 9.643 14.8267 9.643 14.8056C9.64768 14.733 9.6219 14.9275 9.63831 14.8666C9.65237 14.8126 9.6055 14.9369 9.6055 14.9369C9.61487 14.9298 9.6219 14.9064 9.62893 14.8994C9.66643 14.8501 9.57503 14.9673 9.58206 14.9603C9.59612 14.9439 9.63831 14.9134 9.568 14.9673C9.4555 15.0517 9.66878 14.9228 9.53987 14.9837C9.42737 15.0376 9.6055 14.9837 9.47893 15.0001C9.3805 15.0119 9.44143 15.0048 9.46253 15.0048H9.53753H9.98753H11.0164H11.0867C11.1336 15.0025 11.1711 15.0306 11.0235 14.9955C11.0469 15.0001 11.0914 15.0212 11.0094 14.9837C10.8828 14.9251 11.0938 15.0494 10.9813 14.9673C10.9086 14.9134 10.9508 14.9439 10.9672 14.9603C10.9742 14.9673 10.8852 14.8501 10.9203 14.8994C10.9274 14.9087 10.9344 14.9322 10.9438 14.9369C10.925 14.9251 10.9039 14.8056 10.9157 14.883C10.8922 14.7166 10.9063 14.8126 10.9133 14.8736C10.9625 15.4337 11.0094 15.9939 11.0586 16.5541C11.1242 17.3228 11.1922 18.0892 11.2578 18.858C11.286 19.1908 11.3164 19.5236 11.3446 19.8564C11.4008 20.5173 11.4594 21.1783 11.5157 21.8392C11.5203 21.9001 11.5274 21.9634 11.5321 22.0244C11.5578 22.3291 11.7828 22.6244 12.118 22.6103C12.4133 22.5962 12.7321 22.3525 12.7039 22.0244C12.65 21.408 12.5985 20.7939 12.5446 20.1775C12.5164 19.8541 12.4883 19.533 12.4602 19.2095C12.3969 18.4642 12.3313 17.7212 12.268 16.9759C12.2117 16.3197 12.1555 15.6658 12.0969 15.0095C12.0922 14.9462 12.0852 14.8806 12.0805 14.8173C12.0547 14.5572 11.9844 14.3228 11.7969 14.1306C11.4594 13.7814 11.0071 13.8283 10.5735 13.8283C10.2242 13.8283 9.87503 13.8283 9.52346 13.8283C9.23284 13.8283 8.9469 13.9197 8.74534 14.1376C8.56487 14.3322 8.4969 14.5572 8.47112 14.815C8.4219 15.3376 8.37971 15.8603 8.33518 16.383C8.26721 17.1705 8.19925 17.9603 8.13128 18.7478C8.10081 19.1087 8.068 19.4697 8.03753 19.833C7.97893 20.4986 7.92268 21.1619 7.86409 21.8275C7.8594 21.8908 7.85237 21.9564 7.84768 22.0197C7.81956 22.3361 8.13831 22.6056 8.43362 22.6056H11.6586H12.1157C12.4227 22.6056 12.7157 22.3361 12.7016 22.0197C12.6875 21.7033 12.4438 21.4361 12.1157 21.4361Z" fill="white"/>
<path d="M17.1523 10.6805V12.8321V16.9172V18.6094C17.1523 18.8977 17.143 19.186 17.1523 19.4743V19.5024C17.1594 19.554 17.1805 19.3641 17.1617 19.4298C17.1594 19.4344 17.1594 19.4391 17.157 19.4438C17.1734 19.3829 17.2039 19.329 17.2484 19.2844C17.2414 19.2915 17.2344 19.2985 17.2273 19.3055C17.2719 19.2587 17.3234 19.2282 17.3867 19.2141C17.3023 19.2399 17.4312 19.2048 17.4523 19.2071C17.443 19.2048 17.4336 19.2071 17.4242 19.2071C17.2906 19.2024 17.157 19.2071 17.0258 19.2071C16.4516 19.2071 15.8773 19.2071 15.3008 19.2071C14.1945 19.2071 13.0859 19.2071 11.9797 19.2071C11.9586 19.2071 11.9398 19.2071 11.9187 19.2071C12.1133 19.4016 12.3102 19.5985 12.5047 19.793C12.4367 18.9985 12.3664 18.2016 12.2984 17.4071C12.2234 16.5376 12.1578 15.668 12.0734 14.8008C12.0547 14.6087 12.0172 14.4305 11.9023 14.2712C11.7031 13.9923 11.4172 13.8422 11.0773 13.8305C10.8828 13.8235 10.6859 13.8305 10.4914 13.8305C10.2125 13.8305 9.93359 13.8305 9.65469 13.8305C9.5914 13.8305 9.52812 13.8282 9.4625 13.8305C9.12265 13.8422 8.82031 13.9969 8.62812 14.2829C8.43125 14.5782 8.44765 15.0329 8.41719 15.3798C8.37031 15.9094 8.32578 16.4368 8.2789 16.9665C8.19922 17.8923 8.11953 18.818 8.03984 19.7462C8.0375 19.7626 8.0375 19.779 8.03515 19.7954C8.22969 19.6008 8.42656 19.404 8.62109 19.2094C7.65547 19.2094 6.68984 19.2094 5.72656 19.2094C5.0914 19.2094 4.45625 19.2094 3.82109 19.2094C3.6289 19.2094 3.43672 19.2094 3.24219 19.2094C3.19765 19.2094 3.15312 19.2071 3.10859 19.2094C3.10156 19.2094 3.09453 19.2071 3.0875 19.2094C3.06875 19.2141 0.415623 18.579 3.18125 19.2235C3.17187 19.2212 3.1625 19.2188 3.15312 19.2165C3.21406 19.2329 3.26797 19.2633 3.3125 19.3079C3.24922 19.2469 3.34531 19.3548 3.35 19.3594C3.38515 19.4555 3.39453 19.4766 3.37812 19.418C3.3875 19.5141 3.39219 19.5446 3.39219 19.5141C3.4039 19.4602 3.39219 19.3946 3.39219 19.3407C3.39219 19.1907 3.39219 19.0407 3.39219 18.8883C3.39219 18.3727 3.39219 17.8571 3.39219 17.3415C3.39219 15.9657 3.39219 14.5899 3.39219 13.2118C3.39219 12.654 3.39219 12.0962 3.39219 11.5407C3.39219 11.2641 3.4039 10.9852 3.39219 10.711C3.39219 10.704 3.39219 10.6969 3.39219 10.6899C3.39219 10.6876 3.39219 10.6876 3.39219 10.6852C3.3875 10.6641 4.84765 4.48834 3.37812 10.779C3.39453 10.7204 3.3875 10.7391 3.35 10.8376C3.28437 10.9149 3.27265 10.9313 3.3125 10.8891C3.28906 10.9079 3.26562 10.9266 3.23984 10.9454C3.14375 10.9805 3.12265 10.9899 3.18125 10.9712L3.0875 10.9852H3.08984C3.09219 10.9876 3.1039 10.9852 3.10625 10.9852C3.16484 10.9923 3.22812 10.9852 3.28672 10.9852H4.17265H7.47734H11.6633H15.4109H17.3867C17.4031 10.9852 17.4219 10.9876 17.4383 10.9852H17.4477C17.4148 10.9805 17.3844 10.9758 17.3516 10.9712C17.4102 10.9876 17.3914 10.9805 17.293 10.9454C17.2695 10.9266 17.2461 10.9079 17.2203 10.8891C17.2625 10.9313 17.2484 10.9149 17.1828 10.8376C17.1711 10.8094 17.1594 10.779 17.1477 10.7508C17.1758 10.8048 17.1734 10.7837 17.1523 10.6805C17.1687 10.9852 17.4102 11.2805 17.7383 11.2665C18.0406 11.2524 18.343 11.0087 18.3242 10.6805C18.2961 10.179 17.9234 9.81569 17.4219 9.811C17.3492 9.811 17.2766 9.811 17.2062 9.811C16.8828 9.811 16.5594 9.811 16.2359 9.811C15.0828 9.811 13.932 9.811 12.7789 9.811C11.3492 9.811 9.91719 9.811 8.4875 9.811C7.25469 9.811 6.01953 9.811 4.78672 9.811C4.22422 9.811 3.66172 9.79694 3.09922 9.811C2.60703 9.82272 2.23437 10.2048 2.225 10.6969C2.22265 10.786 2.225 10.8774 2.225 10.9665V12.2766V16.3876V19.3758C2.225 19.5657 2.23437 19.7462 2.33047 19.9196C2.48515 20.2055 2.78047 20.3696 3.10156 20.3766H3.21172H4.64609H8.38203H8.62578C8.96328 20.3766 9.18359 20.1071 9.21172 19.7907C9.27734 19.0266 9.34297 18.2626 9.41094 17.4962C9.48828 16.6079 9.56328 15.7219 9.64062 14.8337C9.64297 14.8173 9.64531 14.8008 9.64531 14.7844C9.63828 14.9321 9.6289 14.8946 9.64297 14.8501C9.59844 14.993 9.60078 14.9415 9.6289 14.8946C9.66875 14.8313 9.52578 15.0071 9.60312 14.9344C9.59844 14.9391 9.4789 15.0212 9.55625 14.9743C9.63359 14.9274 9.50469 14.9954 9.49765 14.9977C9.60547 14.9626 9.34765 14.9954 9.4625 15.0001H9.47422C9.67109 15.0048 9.86797 15.0001 10.0648 15.0001H10.8805C10.9461 15.0001 11.0094 15.0024 11.075 15.0001H11.0844C11.1969 14.9954 10.9625 14.9743 11.0352 14.993C11.1078 15.0141 10.8992 14.918 10.9906 14.9743C11.0305 14.9977 11.0398 15.0282 10.9437 14.9344C11.007 14.9954 10.9109 14.8899 10.9109 14.8829C10.9133 14.8946 10.9719 14.9977 10.9227 14.8923C10.9016 14.8407 10.8992 14.836 10.9133 14.8805C10.9039 14.7868 10.8992 14.754 10.9016 14.7868C10.9133 15.0212 10.9414 15.2579 10.9625 15.4923C11.0094 16.0219 11.0539 16.5516 11.1008 17.0813C11.1781 17.9696 11.2531 18.8555 11.3305 19.7438C11.3328 19.7602 11.3328 19.7766 11.3352 19.793C11.3633 20.1094 11.5812 20.379 11.9211 20.379H14.8391H16.7539H17.3187H17.4406C17.743 20.3719 18.0242 20.2337 18.1883 19.9735C18.3687 19.6876 18.3219 19.3102 18.3219 18.9844C18.3219 18.4829 18.3219 17.9813 18.3219 17.4797C18.3219 16.0993 18.3219 14.7188 18.3219 13.3383C18.3219 12.4665 18.3312 11.5946 18.3219 10.7227C18.3219 10.7087 18.3219 10.6946 18.3219 10.6805C18.3219 10.3735 18.0523 10.0805 17.7359 10.0946C17.4219 10.1087 17.1523 10.3501 17.1523 10.6805Z" fill="white"/>
<path d="M7.48437 22.6033H9.37578H12.3664H13.0625C13.3695 22.6033 13.6625 22.3337 13.6484 22.0173C13.6344 21.7009 13.3906 21.4314 13.0625 21.4314C12.432 21.4314 11.8016 21.4314 11.1711 21.4314C10.175 21.4314 9.17656 21.4314 8.18047 21.4314C7.94844 21.4314 7.7164 21.4314 7.48437 21.4314C7.17734 21.4314 6.88437 21.7009 6.89844 22.0173C6.9125 22.3337 7.15625 22.6033 7.48437 22.6033Z" fill="white"/>
</svg>
