<svg width="24" height="24" viewBox="0 0 24 24" fill="none" xmlns="http://www.w3.org/2000/svg">
<g clip-path="url(#clip0_705_2618)">
<path d="M-4.50073 15.9999H27.0784V23.9999H-4.50073V15.9999Z" fill="#1EB53A"/>
<path d="M-4.49927 0H27.0798V8H-4.49927V0Z" fill="#0099B5"/>
<path d="M-4.50073 7.67999H27.0784V16.32H-4.50073V7.67999Z" fill="#CE1126"/>
<path d="M-4.50073 8.1601H27.0784V15.8401H-4.50073V8.1601Z" fill="#FDFDFD"/>
<path d="M5.64482 6.76C6.66946 6.76 7.5001 5.91829 7.5001 4.88C7.5001 3.8417 6.66946 3 5.64482 3C4.62018 3 3.78955 3.8417 3.78955 4.88C3.78955 5.91829 4.62018 6.76 5.64482 6.76Z" fill="#FDFDFD"/>
<path d="M6.26372 6.76C7.28836 6.76 8.11899 5.91829 8.11899 4.88C8.11899 3.8417 7.28836 3 6.26372 3C5.23908 3 4.40845 3.8417 4.40845 4.88C4.40845 5.91829 5.23908 6.76 6.26372 6.76Z" fill="#0099B5"/>
<path d="M8.50339 5.43054L8.40845 5.71917L8.55336 5.7698" fill="#FDFDFD"/>
<path d="M8.5032 5.43054L8.59814 5.71917L8.45323 5.7698" fill="#FDFDFD"/>
<path d="M8.78834 5.64009L8.48803 5.63875L8.48481 5.79351" fill="#FDFDFD"/>
<path d="M8.78954 5.64012L8.54736 5.82094L8.45541 5.69767" fill="#FDFDFD"/>
<path d="M8.2173 5.64024L8.45948 5.82106L8.55143 5.69779" fill="#FDFDFD"/>
<path d="M8.21849 5.64015L8.5188 5.63881L8.52203 5.79357" fill="#FDFDFD"/>
<path d="M8.67958 5.97983L8.58944 5.68983L8.44257 5.7355" fill="#FDFDFD"/>
<path d="M8.68004 5.9797L8.43588 5.80317L8.5241 5.67566" fill="#FDFDFD"/>
<path d="M8.32692 5.98023L8.57122 5.80293L8.48364 5.67586" fill="#FDFDFD"/>
<path d="M8.32689 5.98004L8.41788 5.68995L8.56427 5.73503" fill="#FDFDFD"/>
<path d="M8.50339 4.21521L8.40845 4.50384L8.55336 4.55447" fill="#FDFDFD"/>
<path d="M8.5032 4.21515L8.59814 4.50378L8.45323 4.55441" fill="#FDFDFD"/>
<path d="M8.78834 4.42476L8.48803 4.42342L8.48481 4.57818" fill="#FDFDFD"/>
<path d="M8.78881 4.42479L8.54663 4.60561L8.45468 4.48233" fill="#FDFDFD"/>
<path d="M8.2173 4.42491L8.45948 4.60573L8.55143 4.48246" fill="#FDFDFD"/>
<path d="M8.21849 4.42476L8.5188 4.42342L8.52203 4.57818" fill="#FDFDFD"/>
<path d="M8.6808 4.7648L8.59066 4.4748L8.44379 4.52047" fill="#FDFDFD"/>
<path d="M8.68078 4.76486L8.43661 4.58833L8.52484 4.46081" fill="#FDFDFD"/>
<path d="M8.32789 4.76502L8.57219 4.58772L8.48462 4.46065" fill="#FDFDFD"/>
<path d="M8.32786 4.76502L8.41886 4.47492L8.56525 4.52" fill="#FDFDFD"/>
<path d="M8.50339 3L8.40845 3.28863L8.55336 3.33926" fill="#FDFDFD"/>
<path d="M8.5032 3L8.59814 3.28863L8.45323 3.33926" fill="#FDFDFD"/>
<path d="M8.78834 3.20955L8.48803 3.20821L8.48481 3.36297" fill="#FDFDFD"/>
<path d="M8.78954 3.20958L8.54736 3.3904L8.45541 3.26712" fill="#FDFDFD"/>
<path d="M8.2173 3.2097L8.45948 3.39052L8.55143 3.26725" fill="#FDFDFD"/>
<path d="M8.21849 3.20949L8.5188 3.20814L8.52203 3.3629" fill="#FDFDFD"/>
<path d="M8.67762 3.54972L8.58749 3.25971L8.44061 3.30539" fill="#FDFDFD"/>
<path d="M8.6776 3.54959L8.43343 3.37306L8.52166 3.24554" fill="#FDFDFD"/>
<path d="M8.3257 3.55005L8.57 3.37276L8.48242 3.24568" fill="#FDFDFD"/>
<path d="M8.32591 3.54987L8.4169 3.25977L8.5633 3.30485" fill="#FDFDFD"/>
<path d="M9.70066 5.43054L9.60571 5.71917L9.75063 5.7698" fill="#FDFDFD"/>
<path d="M9.70047 5.43054L9.79541 5.71917L9.6505 5.7698" fill="#FDFDFD"/>
<path d="M9.98634 5.64009L9.68603 5.63875L9.6828 5.79351" fill="#FDFDFD"/>
<path d="M9.98607 5.64024L9.74389 5.82106L9.65194 5.69779" fill="#FDFDFD"/>
<path d="M9.41554 5.63976L9.65772 5.82057L9.74967 5.6973" fill="#FDFDFD"/>
<path d="M9.416 5.64009L9.71631 5.63875L9.71954 5.79351" fill="#FDFDFD"/>
<path d="M9.87733 5.98001L9.7872 5.69001L9.64032 5.73568" fill="#FDFDFD"/>
<path d="M9.87755 5.97989L9.63339 5.80336L9.72161 5.67584" fill="#FDFDFD"/>
<path d="M9.52565 5.98041L9.76995 5.80312L9.68237 5.67604" fill="#FDFDFD"/>
<path d="M9.52611 5.98035L9.6171 5.69025L9.76349 5.73533" fill="#FDFDFD"/>
<path d="M9.70066 4.21521L9.60571 4.50384L9.75063 4.55447" fill="#FDFDFD"/>
<path d="M9.70047 4.21515L9.79541 4.50378L9.6505 4.55441" fill="#FDFDFD"/>
<path d="M9.98634 4.4247L9.68603 4.42335L9.6828 4.57811" fill="#FDFDFD"/>
<path d="M9.98607 4.42491L9.74389 4.60573L9.65194 4.48246" fill="#FDFDFD"/>
<path d="M9.41554 4.42448L9.65772 4.6053L9.74967 4.48203" fill="#FDFDFD"/>
<path d="M9.416 4.42482L9.71631 4.42348L9.71954 4.57824" fill="#FDFDFD"/>
<path d="M9.87733 4.76462L9.7872 4.47462L9.64032 4.52029" fill="#FDFDFD"/>
<path d="M9.87755 4.76474L9.63339 4.58821L9.72161 4.46069" fill="#FDFDFD"/>
<path d="M9.52467 4.76489L9.76897 4.5876L9.6814 4.46053" fill="#FDFDFD"/>
<path d="M9.52488 4.76483L9.61588 4.47474L9.76227 4.51982" fill="#FDFDFD"/>
<path d="M9.70066 3L9.60571 3.28863L9.75063 3.33926" fill="#FDFDFD"/>
<path d="M9.70047 3L9.79541 3.28863L9.6505 3.33926" fill="#FDFDFD"/>
<path d="M9.98634 3.20955L9.68603 3.20821L9.6828 3.36297" fill="#FDFDFD"/>
<path d="M9.98607 3.20982L9.74389 3.39064L9.65194 3.26737" fill="#FDFDFD"/>
<path d="M9.41554 3.20921L9.65772 3.39003L9.74967 3.26676" fill="#FDFDFD"/>
<path d="M9.416 3.20955L9.71631 3.20821L9.71954 3.36297" fill="#FDFDFD"/>
<path d="M9.87733 3.54929L9.7872 3.25929L9.64032 3.30496" fill="#FDFDFD"/>
<path d="M9.87755 3.54953L9.63339 3.373L9.72161 3.24548" fill="#FDFDFD"/>
<path d="M9.52443 3.54987L9.76873 3.37257L9.68115 3.2455" fill="#FDFDFD"/>
<path d="M9.52488 3.54962L9.61588 3.25953L9.76227 3.30461" fill="#FDFDFD"/>
<path d="M10.9023 5.43054L10.8074 5.71917L10.9523 5.7698" fill="#FDFDFD"/>
<path d="M10.9021 5.43054L10.9971 5.71917L10.8522 5.7698" fill="#FDFDFD"/>
<path d="M11.1875 5.64003L10.8872 5.63869L10.884 5.79345" fill="#FDFDFD"/>
<path d="M11.1877 5.6403L10.9456 5.82112L10.8536 5.69785" fill="#FDFDFD"/>
<path d="M10.6177 5.63988L10.8599 5.82069L10.9518 5.69742" fill="#FDFDFD"/>
<path d="M10.6174 5.64003L10.9177 5.63869L10.921 5.79345" fill="#FDFDFD"/>
<path d="M11.0787 5.9802L10.9886 5.6902L10.8417 5.73587" fill="#FDFDFD"/>
<path d="M11.0792 5.98007L10.835 5.80354L10.9233 5.67602" fill="#FDFDFD"/>
<path d="M10.7254 5.98059L10.9697 5.8033L10.8821 5.67622" fill="#FDFDFD"/>
<path d="M10.7256 5.98041L10.8166 5.69031L10.963 5.7354" fill="#FDFDFD"/>
<path d="M10.9026 4.21521L10.8076 4.50384L10.9525 4.55447" fill="#FDFDFD"/>
<path d="M10.9024 4.21515L10.9973 4.50378L10.8524 4.55441" fill="#FDFDFD"/>
<path d="M11.1875 4.4247L10.8872 4.42335L10.884 4.57811" fill="#FDFDFD"/>
<path d="M11.1887 4.42479L10.9465 4.60561L10.8546 4.48233" fill="#FDFDFD"/>
<path d="M10.617 4.42461L10.8591 4.60542L10.9511 4.48215" fill="#FDFDFD"/>
<path d="M10.6174 4.42476L10.9177 4.42342L10.921 4.57818" fill="#FDFDFD"/>
<path d="M11.079 4.76474L10.9889 4.47474L10.842 4.52041" fill="#FDFDFD"/>
<path d="M11.079 4.76474L10.8348 4.58821L10.923 4.46069" fill="#FDFDFD"/>
<path d="M10.7263 4.76502L10.9706 4.58772L10.8831 4.46065" fill="#FDFDFD"/>
<path d="M10.727 4.76502L10.818 4.47492L10.9644 4.52" fill="#FDFDFD"/>
<path d="M10.9026 3L10.8076 3.28863L10.9525 3.33926" fill="#FDFDFD"/>
<path d="M10.9024 3L10.9973 3.28863L10.8524 3.33926" fill="#FDFDFD"/>
<path d="M11.1878 3.20949L10.8874 3.20814L10.8842 3.3629" fill="#FDFDFD"/>
<path d="M11.1887 3.20958L10.9465 3.3904L10.8546 3.26712" fill="#FDFDFD"/>
<path d="M10.6174 3.20946L10.8596 3.39027L10.9516 3.267" fill="#FDFDFD"/>
<path d="M10.6177 3.20961L10.918 3.20827L10.9212 3.36303" fill="#FDFDFD"/>
<path d="M11.078 3.54947L10.9879 3.25947L10.841 3.30514" fill="#FDFDFD"/>
<path d="M11.0782 3.54941L10.8341 3.37288L10.9223 3.24536" fill="#FDFDFD"/>
<path d="M10.7256 3.54975L10.9699 3.37245L10.8823 3.24538" fill="#FDFDFD"/>
<path d="M10.7248 3.5495L10.8158 3.2594L10.9622 3.30449" fill="#FDFDFD"/>
<path d="M6.10349 5.43054L6.00854 5.71917L6.15346 5.7698" fill="#FDFDFD"/>
<path d="M6.1033 5.43054L6.19824 5.71917L6.05333 5.7698" fill="#FDFDFD"/>
<path d="M6.38868 5.64009L6.08837 5.63875L6.08515 5.79351" fill="#FDFDFD"/>
<path d="M6.38842 5.64024L6.14623 5.82106L6.05429 5.69779" fill="#FDFDFD"/>
<path d="M5.81813 5.64018L6.06031 5.821L6.15226 5.69773" fill="#FDFDFD"/>
<path d="M5.81859 5.64015L6.1189 5.63881L6.12213 5.79357" fill="#FDFDFD"/>
<path d="M6.28627 5.97995L6.19613 5.68995L6.04926 5.73562" fill="#FDFDFD"/>
<path d="M6.28625 5.97995L6.04208 5.80342L6.1303 5.6759" fill="#FDFDFD"/>
<path d="M5.93361 5.98035L6.17791 5.80305L6.09033 5.67598" fill="#FDFDFD"/>
<path d="M5.93406 5.98011L6.02506 5.69001L6.17145 5.73509" fill="#FDFDFD"/>
<path d="M7.30344 5.43054L7.2085 5.71917L7.35341 5.7698" fill="#FDFDFD"/>
<path d="M7.30325 5.43054L7.39819 5.71917L7.25328 5.7698" fill="#FDFDFD"/>
<path d="M7.58912 5.64009L7.28881 5.63875L7.28559 5.79351" fill="#FDFDFD"/>
<path d="M7.58886 5.64024L7.34667 5.82106L7.25473 5.69779" fill="#FDFDFD"/>
<path d="M7.01881 5.63982L7.26099 5.82063L7.35294 5.69736" fill="#FDFDFD"/>
<path d="M7.01928 5.64009L7.31959 5.63875L7.32281 5.79351" fill="#FDFDFD"/>
<path d="M7.47914 5.97977L7.389 5.68977L7.24213 5.73544" fill="#FDFDFD"/>
<path d="M7.48083 5.98001L7.23666 5.80348L7.32488 5.67596" fill="#FDFDFD"/>
<path d="M7.12746 5.98029L7.37175 5.80299L7.28418 5.67592" fill="#FDFDFD"/>
<path d="M7.12767 5.98011L7.21866 5.69001L7.36505 5.73509" fill="#FDFDFD"/>
<path d="M7.30442 4.21509L7.20947 4.50371L7.35439 4.55435" fill="#FDFDFD"/>
<path d="M7.30423 4.21509L7.39917 4.50371L7.25426 4.55435" fill="#FDFDFD"/>
<path d="M7.58863 4.42476L7.28832 4.42342L7.2851 4.57818" fill="#FDFDFD"/>
<path d="M7.58959 4.42491L7.34741 4.60573L7.25546 4.48246" fill="#FDFDFD"/>
<path d="M7.01979 4.42479L7.26197 4.60561L7.35392 4.48233" fill="#FDFDFD"/>
<path d="M7.01952 4.42458L7.31983 4.42323L7.32306 4.57799" fill="#FDFDFD"/>
<path d="M7.47938 4.7648L7.38925 4.4748L7.24237 4.52047" fill="#FDFDFD"/>
<path d="M7.48058 4.76462L7.23641 4.58809L7.32464 4.46057" fill="#FDFDFD"/>
<path d="M7.12575 4.76508L7.37004 4.58778L7.28247 4.46071" fill="#FDFDFD"/>
<path d="M7.12596 4.76483L7.21695 4.47474L7.36334 4.51982" fill="#FDFDFD"/>
</g>
<defs>
<clipPath id="clip0_705_2618">
<rect width="31.5791" height="24" fill="white" transform="translate(-4.5)"/>
</clipPath>
</defs>
</svg>
